<?xml version="1.0" encoding="UTF-8"?>
<svg width="440" height="280" viewBox="0 0 440 280" xmlns="http://www.w3.org/2000/svg">
  <defs>
    <linearGradient id="bg" x1="0%" y1="0%" x2="100%" y2="100%">
      <stop offset="0%" style="stop-color:#1a1a2e"/>
      <stop offset="100%" style="stop-color:#16213e"/>
    </linearGradient>
  </defs>

  <!-- Background -->
  <rect width="440" height="280" fill="url(#bg)"/>

  <!-- Subtle grid of link-like lines in background -->
  <g opacity="0.06" stroke="#a5b4fc" stroke-width="1">
    <line x1="20" y1="60" x2="160" y2="60"/>
    <line x1="20" y1="80" x2="120" y2="80"/>
    <line x1="20" y1="100" x2="180" y2="100"/>
    <line x1="20" y1="120" x2="140" y2="120"/>
    <line x1="260" y1="160" x2="420" y2="160"/>
    <line x1="260" y1="180" x2="380" y2="180"/>
    <line x1="260" y1="200" x2="420" y2="200"/>
    <line x1="260" y1="220" x2="360" y2="220"/>
  </g>

  <!-- Icon -->
  <rect x="152" y="50" width="56" height="56" rx="10" fill="#2563eb"/>
  <text x="180" y="87" text-anchor="middle" font-family="-apple-system, BlinkMacSystemFont, 'Segoe UI', Roboto, sans-serif" font-size="40" font-weight="bold" fill="white">W</text>

  <!-- Title with brand style -->
  <text x="220" y="87" text-anchor="start" font-family="-apple-system, BlinkMacSystemFont, 'Segoe UI', Roboto, sans-serif" font-size="28" font-weight="bold" fill="#0645ad" text-decoration="underline">
    <tspan>Wikilinker</tspan>
  </text>
  <!-- Green tint behind title -->
  <rect x="216" y="62" width="154" height="34" rx="3" fill="rgba(52, 168, 83, 0.12)" pointer-events="none"/>

  <!-- Tagline -->
  <text x="220" y="138" text-anchor="middle" font-family="-apple-system, BlinkMacSystemFont, 'Segoe UI', Roboto, sans-serif" font-size="15" fill="#a5b4fc">Auto-links news articles to Wikipedia</text>

  <!-- Example text block with highlighted entities -->
  <g transform="translate(60, 170)">
    <rect x="0" y="0" width="320" height="72" rx="6" fill="#12121f" stroke="#2a2a4a" stroke-width="1"/>

    <text x="16" y="24" font-family="-apple-system, BlinkMacSystemFont, 'Segoe UI', Roboto, sans-serif" font-size="13" fill="#888">
      The president met with
      <tspan fill="#0645ad" text-decoration="underline">NATO</tspan>
      leaders in
    </text>
    <text x="16" y="44" font-family="-apple-system, BlinkMacSystemFont, 'Segoe UI', Roboto, sans-serif" font-size="13" fill="#888">
      <tspan fill="#0645ad" text-decoration="underline">Brussels</tspan>
      to discuss the
      <tspan fill="#0645ad" text-decoration="underline">European Union</tspan>
    </text>
    <text x="16" y="64" font-family="-apple-system, BlinkMacSystemFont, 'Segoe UI', Roboto, sans-serif" font-size="13" fill="#888">
      trade agreement with the
      <tspan fill="#0645ad" text-decoration="underline">United Kingdom</tspan>.
    </text>

    <!-- Green tint highlights behind linked entities -->
    <rect x="167" y="12" width="42" height="17" rx="2" fill="rgba(52, 168, 83, 0.15)"/>
    <rect x="16" y="32" width="58" height="17" rx="2" fill="rgba(52, 168, 83, 0.15)"/>
    <rect x="149" y="32" width="112" height="17" rx="2" fill="rgba(52, 168, 83, 0.15)"/>
    <rect x="177" y="52" width="112" height="17" rx="2" fill="rgba(52, 168, 83, 0.15)"/>
  </g>

  <!-- Bottom tagline -->
  <text x="220" y="268" text-anchor="middle" font-family="-apple-system, BlinkMacSystemFont, 'Segoe UI', Roboto, sans-serif" font-size="11" fill="#4a4a6a">500,000 entities · 19 news sites · all local, no tracking</text>
</svg>
